<svg width="613" height="613" viewBox="0 0 613 613" fill="none" xmlns="http://www.w3.org/2000/svg">
<mask id="path-1-inside-1_97_1185" fill="white">
<path d="M309 77H577V575H309V77Z"/>
</mask>
<path d="M309 77H577V575H309V77Z" fill="#FC8916"/>
<path d="M577 77H605V49H577V77ZM577 575V603H605V575H577ZM309 105H577V49H309V105ZM549 77V575H605V77H549ZM577 547H309V603H577V547Z" fill="#D54B00" mask="url(#path-1-inside-1_97_1185)"/>
<mask id="path-3-inside-2_97_1185" fill="white">
<path d="M41 77H309V575H41V77Z"/>
</mask>
<path d="M41 77H309V575H41V77Z" fill="#FDA736"/>
<path d="M41 77V49H13V77H41ZM41 575H13V603H41V575ZM41 105H309V49H41V105ZM309 547H41V603H309V547ZM69 575V77H13V575H69Z" fill="#D54B00" mask="url(#path-3-inside-2_97_1185)"/>
<path d="M485.666 58.1429V134.714C485.666 139.791 483.575 144.66 479.852 148.25C476.129 151.84 471.079 153.857 465.814 153.857C460.549 153.857 455.5 151.84 451.777 148.25C448.054 144.66 445.962 139.791 445.962 134.714V58.1429C445.962 53.0659 448.054 48.1968 451.777 44.6068C455.5 41.0168 460.549 39 465.814 39C471.079 39 476.129 41.0168 479.852 44.6068C483.575 48.1968 485.666 53.0659 485.666 58.1429V58.1429Z" fill="#FFF200"/>
<path d="M327 58.1667V134.833C327.018 139.647 325.146 144.29 321.755 147.841C318.365 151.392 313.704 153.591 308.7 154H307C301.696 154 296.609 151.981 292.858 148.386C289.107 144.792 287 139.917 287 134.833V58.1667C287 53.0833 289.107 48.2082 292.858 44.6138C296.609 41.0193 301.696 39 307 39H308.7C313.704 39.4091 318.365 41.6077 321.755 45.1587C325.146 48.7098 327.018 53.3534 327 58.1667Z" fill="#FFF200"/>
<path d="M148.186 153.857C153.451 153.857 158.501 151.84 162.224 148.25C165.947 144.66 168.038 139.791 168.038 134.714V58.1429C168.038 53.0659 165.947 48.1968 162.224 44.6068C158.501 41.0168 153.451 39 148.186 39C142.921 39 137.872 41.0168 134.149 44.6068C130.426 48.1968 128.334 53.0659 128.334 58.1429V134.714C128.334 139.791 130.426 144.66 134.149 148.25C137.872 151.84 142.921 153.857 148.186 153.857Z" fill="#FFF200"/>
<path d="M327 134.833V58.1667C327.018 53.3534 325.176 48.7098 321.841 45.1587C318.506 41.6077 313.922 39.4091 309 39V154C313.922 153.591 318.506 151.392 321.841 147.841C325.176 144.29 327.018 139.647 327 134.833Z" fill="#FFBE00"/>
<path d="M465.814 39C460.549 39 455.5 41.0168 451.777 44.6068C448.054 48.1968 445.962 53.0659 445.962 58.1429V134.714C445.962 139.791 448.054 144.66 451.777 148.25C455.5 151.84 460.549 153.857 465.814 153.857C471.079 153.857 476.129 151.84 479.852 148.25C483.575 144.66 485.666 139.791 485.666 134.714V58.1429C485.666 53.0659 483.575 48.1968 479.852 44.6068C476.129 41.0168 471.079 39 465.814 39V39Z" fill="#FFBE00"/>
<path d="M410.33 282.21L307.001 381.849L221.737 464.067C217.94 467.203 213.055 468.842 208.058 468.656C203.062 468.47 198.323 466.473 194.787 463.064C191.252 459.654 189.18 455.084 188.987 450.266C188.794 445.449 190.494 440.738 193.746 437.076L307.001 327.866L382.339 255.219C386.136 252.083 391.021 250.444 396.018 250.63C401.014 250.816 405.753 252.813 409.289 256.223C412.824 259.632 414.895 264.202 415.088 269.02C415.281 273.838 413.582 278.548 410.33 282.21V282.21Z" fill="white"/>
<path d="M232.555 345.286C243.353 345.286 253.908 342.199 262.885 336.414C271.863 330.63 278.86 322.408 282.992 312.789C287.124 303.169 288.205 292.585 286.099 282.373C283.993 272.161 278.793 262.781 271.158 255.419C263.523 248.057 253.796 243.043 243.206 241.012C232.616 238.981 221.639 240.023 211.664 244.007C201.688 247.992 193.162 254.739 187.163 263.396C181.165 272.053 177.963 282.231 177.963 292.643C177.989 306.597 183.749 319.972 193.982 329.839C204.214 339.706 218.085 345.261 232.555 345.286V345.286ZM232.555 278.286C235.5 278.286 238.379 279.128 240.827 280.706C243.276 282.283 245.184 284.525 246.311 287.149C247.438 289.772 247.733 292.659 247.158 295.444C246.584 298.229 245.166 300.787 243.083 302.795C241.001 304.803 238.348 306.17 235.46 306.724C232.572 307.278 229.578 306.994 226.858 305.907C224.137 304.821 221.812 302.981 220.176 300.62C218.54 298.259 217.667 295.483 217.667 292.643C217.667 288.835 219.235 285.184 222.027 282.491C224.82 279.799 228.607 278.286 232.555 278.286Z" fill="white"/>
<path d="M371.519 374C360.721 374 350.167 377.087 341.189 382.871C332.211 388.656 325.214 396.878 321.082 406.497C316.95 416.116 315.869 426.701 317.975 436.912C320.082 447.124 325.281 456.504 332.916 463.867C340.551 471.229 350.278 476.242 360.868 478.274C371.458 480.305 382.435 479.262 392.411 475.278C402.386 471.294 410.912 464.546 416.911 455.889C422.91 447.232 426.111 437.054 426.111 426.642C426.085 412.688 420.325 399.313 410.093 389.446C399.86 379.579 385.99 374.025 371.519 374V374ZM371.519 441C368.574 441 365.695 440.157 363.247 438.58C360.799 437.002 358.89 434.76 357.763 432.137C356.636 429.513 356.342 426.626 356.916 423.841C357.491 421.056 358.909 418.498 360.991 416.49C363.073 414.482 365.726 413.115 368.614 412.561C371.502 412.007 374.496 412.291 377.217 413.378C379.937 414.465 382.262 416.305 383.898 418.666C385.534 421.027 386.408 423.803 386.408 426.642C386.408 430.45 384.839 434.102 382.047 436.794C379.255 439.487 375.468 441 371.519 441Z" fill="#FFF200"/>
<path d="M410.329 255.218C406.609 251.653 401.578 249.652 396.333 249.652C391.089 249.652 386.057 251.653 382.338 255.218L307 327.866V381.848L410.329 282.21C414.026 278.623 416.102 273.771 416.102 268.714C416.102 263.657 414.026 258.805 410.329 255.218V255.218Z" fill="white"/>
<path d="M371.519 374C360.721 374 350.167 377.087 341.189 382.871C332.211 388.656 325.214 396.878 321.082 406.497C316.95 416.116 315.869 426.701 317.975 436.912C320.082 447.124 325.281 456.504 332.916 463.867C340.551 471.229 350.278 476.242 360.868 478.274C371.458 480.305 382.435 479.262 392.411 475.278C402.386 471.294 410.912 464.546 416.911 455.889C422.91 447.232 426.111 437.054 426.111 426.642C426.085 412.688 420.325 399.313 410.093 389.446C399.86 379.579 385.99 374.025 371.519 374V374ZM371.519 441C368.574 441 365.695 440.157 363.247 438.58C360.799 437.002 358.89 434.76 357.763 432.137C356.636 429.513 356.342 426.626 356.916 423.841C357.491 421.056 358.909 418.498 360.991 416.49C363.073 414.482 365.726 413.115 368.614 412.561C371.502 412.007 374.496 412.291 377.217 413.378C379.937 414.465 382.262 416.305 383.898 418.666C385.534 421.027 386.408 423.803 386.408 426.642C386.408 430.45 384.839 434.102 382.047 436.794C379.255 439.487 375.468 441 371.519 441Z" fill="white"/>
</svg>
