<svg width="613" height="613" viewBox="0 0 613 613" fill="none" xmlns="http://www.w3.org/2000/svg">
<path d="M456.816 67.2102H156.184V575H456.816V67.2102Z" fill="#FC8916"/>
<path d="M156.184 575H128V39L156.184 67.2105V575Z" fill="#D54B00"/>
<path d="M456.814 575H484.999V39L456.814 67.2105V575Z" fill="#D54B00"/>
<path d="M456.816 67.2105H156.184L128 39H485L456.816 67.2105Z" fill="#D54B00"/>
<path d="M391.053 349.316H348.777C340.998 349.316 334.685 342.996 334.685 335.21C334.685 327.424 340.998 321.105 348.777 321.105H391.053V349.316Z" fill="white"/>
<path d="M372.263 306.464V321.106H391.053V349.316H372.263V363.957C372.263 371.452 378.332 377.527 385.82 377.527H405.68C413.168 377.527 419.237 371.452 419.237 363.957V306.464C419.237 298.97 413.168 292.895 405.68 292.895H385.82C378.332 292.895 372.263 298.97 372.263 306.464Z" fill="#EC5605"/>
</svg>
