<svg width="536" height="400" viewBox="0 0 536 400" fill="none" xmlns="http://www.w3.org/2000/svg">
<path d="M512.203 249.387H351.687V128.424H475.688L512.203 249.387Z" fill="#F5F5F5"/>
<path d="M536 341.726C536 348.553 530.5 354.088 523.716 354.088H497.425C497.482 353.031 497.516 351.963 497.516 350.895C497.516 343.431 496.17 336.208 493.511 329.363H523.716C530.5 329.363 536 334.899 536 341.726Z" fill="#CCCCCC"/>
<path d="M465.189 65.9119H333.209V354.088H379.492C379.435 353.031 379.401 351.963 379.401 350.895C379.401 318.121 405.886 291.467 438.453 291.467C461.207 291.467 481.553 304.248 491.537 324.827C492.256 326.32 492.918 327.824 493.511 329.363H523.716V224.17C523.716 221.038 523.116 217.936 521.948 215.034L487.708 129.975C484.325 121.574 474.197 65.9119 465.189 65.9119ZM358.302 224.344V141.34H465.189L498.601 224.344H358.302Z" fill="#FDA736"/>
<path d="M389.773 354.088C389.704 353.031 389.67 351.963 389.67 350.895C389.67 323.782 411.511 301.802 438.452 301.802C457.726 301.802 474.386 313.045 482.305 329.363C485.466 335.863 487.246 343.178 487.246 350.895C487.246 351.963 487.212 353.031 487.143 354.076C485.512 379.72 464.344 400 438.452 400C412.572 400 391.405 379.72 389.773 354.088ZM458.467 350.895C458.467 339.791 449.487 330.753 438.452 330.753C427.418 330.753 418.437 339.791 418.437 350.895C418.437 362 427.418 371.038 438.452 371.038C449.487 371.038 458.467 362 458.467 350.895Z" fill="#D54B00"/>
<path d="M438.453 330.753C449.487 330.753 458.468 339.791 458.468 350.895C458.468 362 449.487 371.038 438.453 371.038C427.418 371.038 418.438 362 418.438 350.895C418.438 339.791 427.418 330.753 438.453 330.753Z" fill="white"/>
<path d="M333.197 0V354.088H157.501C157.558 353.031 157.592 351.964 157.592 350.896C157.592 318.121 131.107 291.467 98.5399 291.467C75.7634 291.467 55.4289 304.26 45.4671 324.816C44.7367 326.309 44.0749 327.825 43.4815 329.363H12.2837V0H333.197Z" fill="#FC8916"/>
<path d="M147.322 350.895C147.322 351.963 147.288 353.031 147.22 354.088C145.588 379.72 124.42 400 98.54 400C72.6483 400 51.4808 379.72 49.849 354.088C49.7806 353.031 49.7463 351.963 49.7463 350.895C49.7463 343.178 51.515 335.875 54.6873 329.375C62.5952 313.045 79.2668 301.802 98.54 301.802C125.482 301.802 147.322 323.782 147.322 350.895ZM118.555 350.895C118.555 339.791 109.575 330.753 98.54 330.753C87.5055 330.753 78.525 339.791 78.525 350.895C78.525 362 87.5055 371.038 98.54 371.038C109.575 371.038 118.555 362 118.555 350.895Z" fill="#D54B00"/>
<path d="M98.5401 330.753C109.575 330.753 118.555 339.791 118.555 350.895C118.555 362 109.575 371.038 98.5401 371.038C87.5057 371.038 78.5251 362 78.5251 350.895C78.5251 339.791 87.5057 330.753 98.5401 330.753Z" fill="white"/>
<path d="M39.4766 350.895C39.4766 351.963 39.5108 353.043 39.5678 354.088H12.284C5.50013 354.088 0 348.553 0 341.726C0 334.899 5.50013 329.363 12.284 329.363H43.4818C40.8231 336.196 39.4766 343.42 39.4766 350.895Z" fill="#D54B00"/>
<path d="M507.165 298.936H499.006C494.058 298.936 490.049 294.9 490.049 289.921V268.965C490.049 263.985 494.06 259.95 499.006 259.95H507.165V298.936Z" fill="#D54B00"/>
<path d="M307.776 64.9056H37.7148V82.1313H307.776V64.9056Z" fill="white"/>
<path d="M307.776 120.538H37.7148V137.763H307.776V120.538Z" fill="white"/>
<path d="M307.776 231.803H37.7148V249.028H307.776V231.803Z" fill="white"/>
<path d="M307.776 176.171H37.7148V193.396H307.776V176.171Z" fill="white"/>
<path opacity="0.7" d="M368.424 141.34L451.885 224.344H498.601L465.19 141.34H368.424Z" fill="white"/>
</svg>
