<svg width="34" height="35" viewBox="0 0 34 35" fill="none" xmlns="http://www.w3.org/2000/svg">
<path fill-rule="evenodd" clip-rule="evenodd" d="M1.99997 20.999L19.9999 10.9993L32 18.9996L14.9999 29.9992L1.99997 20.999Z" fill="#D54B00"/>
<path fill-rule="evenodd" clip-rule="evenodd" d="M19 6.9992L34 15.9993V23.9991L19 14.9989V6.9992Z" fill="#FC8916"/>
<path fill-rule="evenodd" clip-rule="evenodd" d="M1 17.9992L19.9999 6.9992V14.9989L1 25.9991V17.9992Z" fill="#FC8916"/>
<path fill-rule="evenodd" clip-rule="evenodd" d="M-0.000105 17.9992L14.9999 26.9993V34.999L-0.000105 25.9991V17.9992Z" fill="#EC5605"/>
<path fill-rule="evenodd" clip-rule="evenodd" d="M14.9999 26.9993L34 15.9993V23.9991L14.9999 34.9991V26.9993Z" fill="#FDA736"/>
<path fill-rule="evenodd" clip-rule="evenodd" d="M9.99998 0.999297L11.9999 -0.00091V11.9993L9.99998 12.9991V0.999297Z" fill="#FDA736"/>
<path fill-rule="evenodd" clip-rule="evenodd" d="M7.99989 1.99911L9.99998 0.999298V12.9991L7.99989 13.9991V1.99911Z" fill="#EC5605"/>
<path fill-rule="evenodd" clip-rule="evenodd" d="M24 9.99905L26 8.99884V20.999L24 21.9991V9.99905Z" fill="#EC5605"/>
<path fill-rule="evenodd" clip-rule="evenodd" d="M21.9999 10.9993L24 9.99905V21.9991L21.9999 22.9991V10.9993Z" fill="#FDA736"/>
<path fill-rule="evenodd" clip-rule="evenodd" d="M9.26125 2.16735L10.3188 0.469722L23.7386 8.831L22.6811 10.5286L9.26125 2.16735Z" fill="#FDA736"/>
<path fill-rule="evenodd" clip-rule="evenodd" d="M10.2612 2.16735L11.3189 0.469722L24.7386 8.831L23.6811 10.5286L10.2612 2.16735Z" fill="#FDA736"/>
</svg>
