<svg width="613" height="613" viewBox="0 0 613 613" fill="none" xmlns="http://www.w3.org/2000/svg">
<path d="M566.066 47.9333H47.9331V566.067H566.066V47.9333Z" fill="#FDA736"/>
<path d="M47.9331 47.9333H566.066V566.067" fill="#FC8916"/>
<path d="M575 561.6C575 568.747 568.747 575 561.6 575H52.4C45.2533 575 39 568.747 39 561.6V52.4C39 45.2533 45.2533 39 52.4 39H561.6C568.747 39 575 45.2533 575 52.4V561.6ZM65.8 546.2C65.8 547.305 66.6954 548.2 67.8 548.2H546.2C547.305 548.2 548.2 547.305 548.2 546.2V67.8C548.2 66.6954 547.305 65.8 546.2 65.8H67.8C66.6954 65.8 65.8 66.6954 65.8 67.8V546.2Z" fill="#D54B00"/>
<path d="M458.867 164.067H155.134C149.774 164.067 146.2 160.494 146.2 155.134C146.2 149.774 149.774 146.2 155.134 146.2H458.867C464.227 146.2 467.8 149.774 467.8 155.134C467.8 160.494 464.227 164.067 458.867 164.067Z" fill="white"/>
<path d="M387.4 226.6H155.134C149.774 226.6 146.2 223.027 146.2 217.667C146.2 212.307 149.774 208.733 155.134 208.733H387.4C392.76 208.733 396.334 212.307 396.334 217.667C396.334 223.027 392.76 226.6 387.4 226.6Z" fill="white"/>
<path d="M458.867 289.133H155.134C149.774 289.133 146.2 285.56 146.2 280.2C146.2 274.84 149.774 271.267 155.134 271.267H458.867C464.227 271.267 467.8 274.84 467.8 280.2C467.8 285.56 464.227 289.133 458.867 289.133Z" fill="white"/>
<path d="M387.4 351.666H155.134C149.774 351.666 146.2 348.093 146.2 342.733C146.2 337.373 149.774 333.8 155.134 333.8H387.4C392.76 333.8 396.334 337.373 396.334 342.733C396.334 348.093 392.76 351.666 387.4 351.666Z" fill="white"/>
<path d="M458.867 414.2H155.134C149.774 414.2 146.2 410.627 146.2 405.267C146.2 399.907 149.774 396.333 155.134 396.333H458.867C464.227 396.333 467.8 399.907 467.8 405.267C467.8 410.627 464.227 414.2 458.867 414.2Z" fill="white"/>
<path d="M387.4 476.733H155.134C149.774 476.733 146.2 473.16 146.2 467.8C146.2 462.44 149.774 458.867 155.134 458.867H387.4C392.76 458.867 396.334 462.44 396.334 467.8C396.334 473.16 392.76 476.733 387.4 476.733Z" fill="white"/>
</svg>
