<svg width="536" height="447" viewBox="0 0 536 447" fill="none" xmlns="http://www.w3.org/2000/svg">
<path d="M114.857 0H38.2855V204.344H114.857V0Z" fill="#EC5605"/>
<path d="M191.429 63.8566H153.143V204.342H191.429V63.8566Z" fill="#EC5605"/>
<path d="M280.761 226.236L229.715 262.727V153.256H0V447H280.761V226.236Z" fill="#FDA736"/>
<path d="M382.857 262.727V153.256L268 235.359V447H536V153.256L382.857 262.727Z" fill="#FC8916"/>
<path d="M268 383.143H242.476V332.057H268L280.761 357.6L268 383.143Z" fill="white"/>
<path d="M293.524 332.057H268V383.143H293.524V332.057Z" fill="#F5F5F5"/>
<path d="M204.191 332.057H153.143V383.143H204.191V332.057Z" fill="white"/>
<path d="M382.857 332.057H331.809V383.143H382.857V332.057Z" fill="#F5F5F5"/>
</svg>
