<svg width="536" height="536" viewBox="0 0 536 536" fill="none" xmlns="http://www.w3.org/2000/svg">
<path d="M361.449 88.9504L509.551 61.1809C523.296 58.6046 536 69.1487 536 83.1325V484.354C536 495.101 528.346 504.325 517.783 506.305L361.449 535.617C358.73 536.127 355.938 536.127 353.218 535.617L182.783 503.661C180.063 503.15 177.272 503.15 174.552 503.661L26.4493 531.43C12.7044 534.008 0 523.464 0 509.48V108.258C0 97.5112 7.65431 88.2874 18.217 86.3077L174.551 56.9955C177.27 56.4851 180.062 56.4851 182.782 56.9955L353.217 88.9516C355.938 89.4608 358.728 89.4608 361.449 88.9504Z" fill="#D54B00"/>
<path d="M357.334 89.3337V536C355.955 536 354.578 535.873 353.218 535.618L182.783 503.662C181.423 503.407 180.045 503.28 178.667 503.28V56.6121C180.045 56.6121 181.423 56.7391 182.783 56.9943L353.218 88.9504C354.578 89.2055 355.955 89.3337 357.334 89.3337Z" fill="#D54B00"/>
<path d="M369.68 132.852L491.334 110.042V465.819L357.334 490.945L191.012 459.759C186.916 458.991 182.792 458.607 178.667 458.607C174.543 458.607 170.417 458.992 166.32 459.76L44.6663 482.569V126.792L178.666 101.666L344.986 132.852H344.988C353.18 134.389 361.487 134.388 369.68 132.852Z" fill="#FDA736"/>
<path d="M357.334 134.005V490.945L191.012 459.759C186.916 458.991 182.792 458.607 178.667 458.607V101.668L344.987 132.853H344.989C349.084 133.621 353.209 134.005 357.334 134.005Z" fill="#FC8916"/>
<path d="M355.391 268C344.683 268 335.234 261.211 332.116 251.279L282.982 94.752C268.183 47.6073 304.565 0 355.391 0C406.218 0 442.6 47.6073 427.8 94.752L378.667 251.279C375.548 261.211 366.1 268 355.391 268Z" fill="white"/>
<path d="M427.8 94.752L378.666 251.279C375.548 261.211 366.1 268 355.391 268V0C406.218 0 442.6 47.6073 427.8 94.752Z" fill="#F5F5F5"/>
<path d="M390.348 75.7391C390.348 95.0456 374.698 110.696 355.391 110.696C336.085 110.696 320.435 95.0456 320.435 75.7391C320.435 56.4326 336.085 40.7826 355.391 40.7826C374.698 40.7826 390.348 56.4326 390.348 75.7391Z" fill="#EC5605"/>
<path d="M355.391 110.696V40.7826C374.698 40.7826 390.348 56.4326 390.348 75.7391C390.348 95.0456 374.698 110.696 355.391 110.696Z" fill="#D54B00"/>
</svg>
