<svg width="5" height="9" viewBox="0 0 5 9" fill="none" xmlns="http://www.w3.org/2000/svg">
<path fill-rule="evenodd" clip-rule="evenodd" d="M-9.9e-05 -8.3e-05H0.843674V0.843567H-9.9e-05V-8.3e-05Z" fill="#FDAC5B"/>
<path fill-rule="evenodd" clip-rule="evenodd" d="M-9.9e-05 1.99995H0.843674V2.8436H-9.9e-05V1.99995Z" fill="#FDAC5B"/>
<path fill-rule="evenodd" clip-rule="evenodd" d="M-9.9e-05 3.99998H0.843674V4.84363H-9.9e-05V3.99998Z" fill="#FDAC5B"/>
<path fill-rule="evenodd" clip-rule="evenodd" d="M-9.9e-05 5.99982H0.843674V6.84366H-9.9e-05V5.99982Z" fill="#FDAC5B"/>
<path fill-rule="evenodd" clip-rule="evenodd" d="M-9.9e-05 7.99985H0.843674V8.84369H-9.9e-05V7.99985Z" fill="#FDAC5B"/>
<path fill-rule="evenodd" clip-rule="evenodd" d="M1.99999 5.99982H2.84364V6.84366H1.99999V5.99982Z" fill="#FDAC5B"/>
<path fill-rule="evenodd" clip-rule="evenodd" d="M1.99999 3.99998H2.84364V4.84363H1.99999V3.99998Z" fill="#FDAC5B"/>
<path fill-rule="evenodd" clip-rule="evenodd" d="M1.99999 1.99995H2.84364V2.8436H1.99999V1.99995Z" fill="#FDAC5B"/>
<path fill-rule="evenodd" clip-rule="evenodd" d="M3.99995 3.99998H4.84373V4.84363H3.99995V3.99998Z" fill="#FDAC5B"/>
</svg>
