<svg width="536" height="536" viewBox="0 0 536 536" fill="none" xmlns="http://www.w3.org/2000/svg">
<path d="M498.263 104.063V105.697H37.7545V104.063C64.2477 96.324 85.1463 72.6769 91.9862 42.6995H444.032C450.872 72.6769 471.77 96.324 498.263 104.063Z" fill="#EC5605"/>
<path d="M498.263 209.781V211.414H37.7545V209.781C64.2477 202.021 85.1463 178.374 91.9862 148.417H444.032C450.872 178.374 471.77 202.021 498.263 209.781Z" fill="#FC8916"/>
<path d="M498.263 315.478V431.937C471.77 439.676 450.872 463.323 444.032 493.301H91.9862C85.1463 463.323 64.2477 439.676 37.7545 431.937V315.478C64.2477 307.739 85.1463 284.091 91.9862 254.114H444.032C450.872 284.091 471.77 307.739 498.263 315.478ZM423.711 373.718C423.711 363.977 416.744 356.095 408.136 356.095C399.546 356.095 392.561 363.977 392.561 373.718C392.561 383.438 399.546 391.32 408.136 391.32C416.744 391.32 423.711 383.438 423.711 373.718ZM349.158 373.718C349.158 323.074 312.757 281.886 268 281.886C223.261 281.886 186.842 323.074 186.842 373.718C186.842 424.34 223.261 465.529 268 465.529C312.757 465.529 349.158 424.34 349.158 373.718ZM143.439 373.718C143.439 363.977 136.472 356.095 127.864 356.095C119.273 356.095 112.307 363.977 112.307 373.718C112.307 383.438 119.273 391.32 127.864 391.32C136.472 391.32 143.439 383.438 143.439 373.718Z" fill="#FDA736"/>
<path d="M268 324.586C291.948 324.586 311.421 346.619 311.421 373.718C311.421 400.795 291.948 422.829 268 422.829C244.069 422.829 224.597 400.795 224.597 373.718C224.597 346.619 244.069 324.586 268 324.586Z" fill="white"/>
<path d="M536 21.3395V514.661C536 526.443 527.554 536 517.141 536H18.8773C8.46411 536 0 526.443 0 514.661V21.3395C0 9.55684 8.46411 0 18.8773 0H517.141C527.554 0 536 9.55684 536 21.3395ZM498.263 493.301V463.405C486.352 469.041 476.823 479.823 471.842 493.301H498.263ZM498.263 431.937V315.478C471.77 307.739 450.872 284.091 444.032 254.114H91.9863C85.1464 284.091 64.2478 307.739 37.7546 315.478V431.937C64.2478 439.676 85.1464 463.323 91.9863 493.301H444.032C450.872 463.323 471.77 439.676 498.263 431.937ZM498.263 284.01V254.114H471.842C476.823 267.592 486.352 278.374 498.263 284.01ZM498.263 211.415V209.781C471.77 202.021 450.872 178.374 444.032 148.417H91.9863C85.1464 178.374 64.2478 202.021 37.7546 209.781V211.415H498.263ZM498.263 178.292V148.417H471.842C476.823 161.874 486.352 172.677 498.263 178.292ZM498.263 105.697V104.063C471.77 96.324 450.872 72.6769 444.032 42.6995H91.9863C85.1464 72.6769 64.2478 96.324 37.7546 104.063V105.697H498.263ZM498.263 72.5953V42.6995H471.842C476.823 56.1771 486.352 66.9592 498.263 72.5953ZM64.1756 42.6995H37.7546V72.5953C49.6477 66.9592 59.1946 56.1771 64.1756 42.6995ZM64.1756 148.417H37.7546V178.292C49.6477 172.677 59.1946 161.874 64.1756 148.417ZM64.1756 254.114H37.7546V284.01C49.6477 278.374 59.1946 267.592 64.1756 254.114ZM37.7546 493.301H64.1756C59.1946 479.823 49.6477 469.041 37.7546 463.405V493.301Z" fill="#D54B00"/>
<path d="M408.136 356.094C416.744 356.094 423.711 363.977 423.711 373.717C423.711 383.438 416.744 391.32 408.136 391.32C399.546 391.32 392.561 383.438 392.561 373.717C392.561 363.977 399.546 356.094 408.136 356.094Z" fill="#D54B00"/>
<path d="M268 281.886C312.757 281.886 349.158 323.074 349.158 373.718C349.158 424.34 312.757 465.529 268 465.529C223.261 465.529 186.842 424.34 186.842 373.718C186.842 323.074 223.261 281.886 268 281.886ZM311.421 373.718C311.421 346.619 291.949 324.586 268 324.586C244.07 324.586 224.597 346.619 224.597 373.718C224.597 400.795 244.07 422.829 268 422.829C291.949 422.829 311.421 400.795 311.421 373.718Z" fill="#D54B00"/>
<path d="M127.864 356.094C136.472 356.094 143.439 363.977 143.439 373.717C143.439 383.438 136.472 391.32 127.864 391.32C119.273 391.32 112.307 383.438 112.307 373.717C112.307 363.977 119.273 356.094 127.864 356.094Z" fill="#D54B00"/>
</svg>
