<svg width="613" height="613" viewBox="0 0 613 613" fill="none" xmlns="http://www.w3.org/2000/svg">
<path d="M479.806 211.903C479.806 116.411 402.394 39 306.903 39C211.412 39 134 116.411 134 211.903C134 289.322 184.885 354.853 255.032 376.886V505.839L306.903 523.129L358.774 505.839V376.886C428.921 354.853 479.806 289.322 479.806 211.903Z" fill="#FDA736"/>
<path d="M479.807 211.903C479.807 116.411 402.394 39 306.903 39V505.839H358.774V376.886C428.921 354.853 479.807 289.322 479.807 211.903Z" fill="#FC8916"/>
<path d="M306.903 315.645C364.198 315.645 410.645 269.198 410.645 211.903C410.645 154.608 364.198 108.161 306.903 108.161C249.608 108.161 203.161 154.608 203.161 211.903C203.161 269.198 249.608 315.645 306.903 315.645Z" fill="#CCF7F9"/>
<path d="M306.903 108.161C249.608 108.161 203.161 154.608 203.161 211.903C203.161 269.198 249.608 315.645 306.903 315.645" fill="white"/>
<path d="M306.903 108.161C364.198 108.161 410.645 154.608 410.645 211.903C410.645 269.198 364.198 315.645 306.903 315.645" fill="#F5F5F5"/>
<path d="M358.774 505.839H255.032V575H358.774V505.839Z" fill="#EC5605"/>
<path d="M358.774 505.839H306.903V575H358.774V505.839Z" fill="#D54B00"/>
</svg>
